# xmcd CD database file
#
# Track frame offsets:
#	150
#	5442
#	33905
#	57955
#	79832
#	86217
#	117462
#	142110
#
# Disc length: 2423 seconds
#
# Revision: 1
# Processed by: cddbd v1.5.1PL0 Copyright (c) Steve Scherf et al.
# Submitted via: CDex 1.51
#
DISCID=68097508
DTITLE=Freddie King and Bugs Henderson Band - Live At Texas Opry House,April 20,1976
DYEAR=1988
DGENRE=Blues
TTITLE0=Introduction
TTITLE1=Your Move
TTITLE2=Worried Life Blues
TTITLE3=Hideaway
TTITLE4=Guitar Blues
TTITLE5=Meet Me In The Morning
TTITLE6=Sweet Home Chicago
TTITLE7=Boogie On Down
EXTD=YEAR: 1988
EXTT0=
EXTT1=
EXTT2=
EXTT3=
EXTT4=
EXTT5=
EXTT6=
EXTT7=
PLAYORDER=
